<?xml version="1.0" encoding="UTF-8" standalone="no"?>
<svg xmlns="http://www.w3.org/2000/svg" viewBox="0 0 128 128" version="1">
  <path fill="#98070b" d="m0,0v128h128v-128z"/>
  <path fill="#086598" stroke="#fffcff" stroke-width="2.2" d="m 91.1,99.95 5.166,5.3 10.66,-9.785 c 0,0 -5.21709,-5.353211 -6.06,-6.331 7.82,-10.93 19.5,-45.04 -30.24,-75.24 -0.748,-0.454 -3.211,-2.269 -4.146,-1.262 -0.91,0.981 1.114,2.835 1.458,3.144 35.34,31.6 25.53,56.45 21.23,61.4 -0.89991,-0.82091 -28.49,-30.25 -28.49,-30.25 l 11.87,-12.84 -20.84,0 -21.28,19.7 11.08,11.26 10.55,-9.321 c 0,0 27.766712,30.864765 28.31,31.48 -10.82,9.181 -26.44,8.381 -39.04,-8.706 -1.829699,1.331304 -5.455,2.902 -5.455,2.902 l -5.276,0 -0.352,4.221 c 0,0 -1.055,1.583 -3.341,2.814 -2.286,1.231 -4.657,1.757 -10.02,5.626 -2.888,2.083 -5.259,6.713 -2.638,10.55 2.462,3.61 11.25,0.53 14.59,-4.748 3.342,-5.276 5.98,-8.617 7.738,-8.617 1.759,0 13.45,16 32.71,16 8.617,0 16.71,-3.52 21.81,-7.3 z"/>
</svg>
